<svg width="171" height="77" viewBox="0 0 171 77" fill="none" xmlns="http://www.w3.org/2000/svg">
<path d="M8.23587 0V24.7076H24.7076V32.9435H0V0H8.23587Z" fill="white"/>
<path d="M57.6511 0V32.9435H32.9435V0H57.6511ZM41.1793 8.23587V24.7076H49.4152V8.23587H41.1793Z" fill="white"/>
<path d="M90.5946 0V32.9435H65.887V0H90.5946ZM74.1228 8.23587V24.7076H82.3587V8.23587H74.1228Z" fill="white"/>
<path d="M16.4717 43.2383V51.4742H8.23587V67.9459H16.4717V76.1818H0V43.2383H16.4717ZM24.7076 51.4742V67.9459H16.4717V51.4742H24.7076Z" fill="white"/>
<path d="M57.6511 43.2383V51.4742H49.4152V59.7101H41.1793V67.9459H57.6511V76.1818H32.9435V43.2383H57.6511Z" fill="white"/>
<path d="M90.5946 43.2383V51.4742H82.3587V59.7101H74.1228V67.9459H90.5946V76.1818H65.887V43.2383H90.5946Z" fill="white"/>
<path d="M103.945 71.0917V76.1818H98.8551V71.0917H103.945Z" fill="white"/>
<path d="M129.396 60.9114V76.1818H114.126V66.0015H119.216V71.0917H124.306V66.0015H119.216V60.9114H129.396Z" fill="white"/>
<path d="M149.757 60.9114V66.0015H139.576V76.1818H134.486V60.9114H149.757Z" fill="white"/>
<path d="M159.937 55.8212V60.9114H165.027V66.0015H159.937V71.0917H154.847V55.8212H159.937ZM170.117 71.0917V76.1818H159.937V71.0917H170.117Z" fill="white"/>
</svg>
